<svg xmlns="http://www.w3.org/2000/svg" width="128" height="128" viewBox="0 0 128 128" role="img" aria-label="WhatsApp MCP">
  <rect width="128" height="128" rx="28" fill="#25D366"/>
  <path fill="#fff" d="M64 26c-21 0-38 17-38 38 0 6.7 1.8 13.1 5.1 18.8L26 102l19.9-5.2A37.8 37.8 0 0 0 64 102c21 0 38-17 38-38S85 26 64 26zm0 69.4c-5.8 0-11.5-1.6-16.5-4.5l-1.2-.7-11.8 3.1 3.2-11.5-.8-1.2A31.3 31.3 0 1 1 64 95.4zm17.2-23.4c-.9-.5-5.6-2.8-6.5-3.1-.9-.3-1.5-.5-2.2.5-.6.9-2.5 3.1-3 3.8-.6.6-1.1.7-2 .2-5.4-2.7-9-4.8-12.6-10.9-1-1.6.9-1.5 2.8-5.1.3-.6.2-1.2-.1-1.7-.2-.5-2.2-5.3-3-7.2-.8-1.9-1.6-1.6-2.2-1.7h-1.9c-.6 0-1.7.2-2.6 1.2-.9.9-3.4 3.4-3.4 8.2 0 4.8 3.5 9.5 4 10.1.5.6 6.9 10.5 16.7 14.7 6.2 2.7 8.7 2.9 11.8 2.5 1.9-.3 5.6-2.3 6.4-4.5.8-2.2.8-4.1.6-4.5-.3-.4-.9-.6-1.8-1.1z"/>
</svg>
